PathFileType	4	(X/Y/Z)	Static_1_OpenSim.trc																																																																																																																						
DataRate	CameraRate	NumFrames	NumMarkers	Units	OrigDataRate	OrigDataStartFrame	OrigNumFrames																																																																																																																		
100	100	8	40	mm	100	465	619																																																																																																																		
Frame#	Time	R.ASIS			R.PSIS			S2			L.PSIS			L.ASIS			R.TH1			R.TH2			R.TH3			R.MKnee			R.Knee			R.SH1			R.SH2			R.SH3			R.SH4			R.Ankle			R.MAnkle			R.Heel			R.MT5			R.MT1			L.TH1			L.TH2			L.TH3			L.TH4			L.MKnee			L.Knee			L.SH1			L.SH2			L.SH3			L.Ankle			L.MAnkle			L.Heel			L.MT5			L.MT1			R.Acr			L.Acr			C7			T10			Clav			Sternum			R.Back		
		X1	Y1	Z1	X2	Y2	Z2	X3	Y3	Z3	X4	Y4	Z4	X5	Y5	Z5	X6	Y6	Z6	X7	Y7	Z7	X8	Y8	Z8	X9	Y9	Z9	X10	Y10	Z10	X11	Y11	Z11	X12	Y12	Z12	X13	Y13	Z13	X14	Y14	Z14	X15	Y15	Z15	X16	Y16	Z16	X17	Y17	Z17	X18	Y18	Z18	X19	Y19	Z19	X20	Y20	Z20	X21	Y21	Z21	X22	Y22	Z22	X23	Y23	Z23	X24	Y24	Z24	X25	Y25	Z25	X26	Y26	Z26	X27	Y27	Z27	X28	Y28	Z28	X29	Y29	Z29	X30	Y30	Z30	X31	Y31	Z31	X32	Y32	Z32	X33	Y33	Z33	X34	Y34	Z34	X35	Y35	Z35	X36	Y36	Z36	X37	Y37	Z37	X38	Y38	Z38	X39	Y39	Z39	X40	Y40	Z40
465	4.64	891.493	1070.5723	-432.7287	684.8885	1079.5542	-535.1902	676.2112	1076.8013	-580.9347	689.4794	1082.2485	-631.607	889.6362	1067.5382	-724.9868	850.9325	739.1407	-397.0625	768.7103	738.4783	-395.451	769.438	629.0119	-404.1428	811.0404	502.5426	-519.496	789.9483	513.5252	-406.3159	787.773	349.9669	-391.193	791.4698	238.4358	-402.1905	705.5536	350.0338	-399.2416	710.4496	236.2864	-401.8245	725.3531	77.941	-402.2366	789.4083	92.7007	-480.3906	685.8882	37.0235	-474.622	823.8127	37.8772	-336.0553	898.0477	39.5829	-404.2582	872.4452	766.5257	-752.2448	859.7129	658.3878	-750.0021	789.5255	772.3745	-764.891	780.1474	662.7985	-754.5244	823.5068	501.1413	-643.2994	812.4733	518.0563	-750.9464	799.0925	392.1037	-781.9458	717.2113	399.0051	-772.3913	711.0591	289.4927	-774.2101	752.3812	83.8848	-797.1935	797.8872	91.369	-703.2763	696.2699	43.615	-734.7917	854.9792	33.1884	-833.3353	910.9452	45.1398	-741.3797	811.6128	1488.8937	-430.0941	794.8296	1478.9744	-727.7907	759.8281	1506.4233	-579.8396	742.9671	1180.9741	-578.4389	900.7531	1418.1256	-582.7769	934.3209	1273.6111	-572.1769	682.7902	1404.0485	-499.6806
466	4.65	891.5409	1070.5756	-432.7135	684.9313	1079.5383	-535.1822	676.2441	1076.7869	-580.9353	689.5368	1082.2305	-631.5959	889.6909	1067.5374	-724.9742	850.9966	739.1237	-397.0454	768.774	738.4713	-395.4452	769.5024	629.0099	-404.1376	811.0886	502.527	-519.4927	790.0059	513.5127	-406.3077	787.8079	349.9599	-391.1934	791.4926	238.4365	-402.1879	705.591	350.0297	-399.2437	710.4639	236.2919	-401.8078	725.3573	77.9431	-402.2281	789.4238	92.7049	-480.3974	685.8918	37.0258	-474.6229	823.8171	37.8773	-336.0542	898.053	39.5824	-404.265	872.5149	766.5349	-752.2364	859.791	658.4127	-749.9717	789.587	772.373	-764.8861	780.2217	662.7859	-754.5221	823.489	501.1568	-643.2162	812.5252	518.0577	-750.9336	799.1317	392.0996	-781.9444	717.2479	399.0161	-772.3903	711.0933	289.4914	-774.2167	752.3691	83.8832	-797.192	797.8956	91.3681	-703.2732	696.2712	43.6163	-734.7945	854.9816	33.1834	-833.3356	910.9147	45.1423	-741.3719	811.5987	1488.9183	-430.0855	794.7973	1478.9773	-727.7773	759.769	1506.4005	-579.8302	742.981	1180.9569	-578.436	900.7457	1418.1769	-582.7696	934.3612	1273.6821	-572.1618	682.7811	1404.0279	-499.6384
467	4.66	891.5872	1070.5758	-432.6979	684.9724	1079.5215	-535.1756	676.2754	1076.7721	-580.9358	689.5956	1082.2124	-631.5865	889.7471	1067.5367	-724.9618	851.0555	739.1028	-397.0405	768.8419	738.4637	-395.4423	769.5656	629.0086	-404.1337	811.1385	502.5111	-519.4905	790.0611	513.4998	-406.3005	787.8433	349.9517	-391.1952	791.5144	238.436	-402.1878	705.6318	350.0223	-399.2499	710.4777	236.2979	-401.7926	725.3616	77.9453	-402.2204	789.4456	92.7124	-480.4064	685.8958	37.0284	-474.6236	823.8225	37.8771	-336.0528	898.0624	39.5807	-404.2778	872.583	766.5455	-752.2281	859.8583	658.4298	-749.9501	789.6482	772.3714	-764.8826	780.2925	662.7727	-754.5225	823.489	501.1632	-643.1466	812.5779	518.0646	-750.9164	799.1696	392.0976	-781.9428	717.2831	399.0258	-772.3877	711.1239	289.4926	-774.2209	752.3645	83.8817	-797.1905	797.9057	91.3654	-703.2711	696.2794	43.6144	-734.7985	854.9868	33.1791	-833.335	910.901	45.1423	-741.3697	811.5837	1488.9431	-430.0803	794.7667	1478.98	-727.7662	759.7107	1506.3767	-579.8216	742.992	1180.9399	-578.4335	900.739	1418.2316	-582.7632	934.398	1273.7521	-572.1503	682.7736	1404.0083	-499.5977
468	4.67	891.632	1070.5731	-432.6824	685.0126	1079.5044	-535.1693	676.3066	1076.7575	-580.9351	689.655	1082.1951	-631.5784	889.8037	1067.5366	-724.9504	851.1123	739.0975	-397.0356	768.9131	738.4551	-395.4411	769.6271	629.0068	-404.1304	811.186	502.4946	-519.4884	790.1124	513.4868	-406.2943	787.8776	349.943	-391.1976	791.5339	238.434	-402.1906	705.6718	350.0142	-399.258	710.4911	236.3032	-401.7805	725.365	77.9473	-402.2144	789.4647	92.7182	-480.4138	685.8998	37.0306	-474.6241	823.8275	37.8768	-336.0514	898.0725	39.5784	-404.2913	872.6461	766.5565	-752.2203	859.9146	658.4396	-749.9352	789.7075	772.3701	-764.8801	780.3567	662.7605	-754.525	823.5068	501.1606	-643.1008	812.6298	518.0774	-750.8944	799.2039	392.0978	-781.9406	717.3153	399.0338	-772.3835	711.1472	289.4981	-774.2203	752.3655	83.8814	-797.1896	797.9157	91.3613	-703.2698	696.2918	43.6106	-734.8025	854.9932	33.1765	-833.3337	910.9024	45.1406	-741.3716	811.5675	1488.9679	-430.0788	794.7366	1478.9824	-727.7587	759.6539	1506.3512	-579.8147	743.0009	1180.9227	-578.4309	900.7324	1418.2894	-582.759	934.4305	1273.8214	-572.1442	682.7664	1403.9883	-499.5587
469	4.68	891.6753	1070.5682	-432.6679	685.0518	1079.4879	-535.1622	676.3388	1076.7438	-580.9319	689.7139	1082.1793	-631.5707	889.8587	1067.5364	-724.9404	851.1686	739.1176	-397.0222	768.9862	738.445	-395.4401	769.6869	629.0034	-404.1269	811.2269	502.4779	-519.4858	790.1589	513.4741	-406.2888	787.9089	349.9355	-391.1992	791.5495	238.4312	-402.1954	705.7082	350.0072	-399.2663	710.5043	236.3069	-401.7717	725.3673	77.9492	-402.2097	789.4725	92.7186	-480.4162	685.9033	37.0319	-474.6245	823.8306	37.8763	-336.0502	898.0795	39.5766	-404.3007	872.7005	766.5662	-752.2137	859.9596	658.4423	-749.9251	789.7621	772.3691	-764.8783	780.4116	662.7504	-754.5285	823.5306	501.1547	-643.0762	812.6775	518.0941	-750.8696	799.2321	392.0994	-781.9382	717.3428	399.04	-772.3784	711.1619	289.5072	-774.2138	752.3701	83.8826	-797.1902	797.9238	91.3571	-703.2686	696.3033	43.6075	-734.8046	854.9983	33.1758	-833.332	910.9079	45.1392	-741.3741	811.5503	1488.9921	-430.0809	794.7055	1478.984	-727.7557	759.5989	1506.3234	-579.8098	743.0081	1180.905	-578.4277	900.7255	1418.3492	-582.7588	934.4579	1273.8912	-572.1441	682.7581	1403.9669	-499.5213
470	4.69	891.717	1070.5624	-432.6549	685.0901	1079.4728	-535.1537	676.3728	1076.7319	-580.9252	689.7716	1082.1656	-631.5629	889.9102	1067.5355	-724.9322	851.2242	739.1591	-397.0018	769.0599	738.4333	-395.4387	769.7452	628.9977	-404.1222	811.2591	502.4625	-519.4829	790.2007	513.4622	-406.2836	787.9356	349.9313	-391.199	791.5604	238.4281	-402.201	705.7399	350.0024	-399.274	710.5173	236.3086	-401.7657	725.3683	77.951	-402.2058	789.4662	92.7131	-480.4127	685.9055	37.0325	-474.6246	823.8303	37.876	-336.0492	898.0814	39.5761	-404.3038	872.7445	766.5732	-752.2078	859.994	658.439	-749.9183	789.8093	772.3685	-764.8771	780.4552	662.7435	-754.5314	823.5496	501.1501	-643.0632	812.7176	518.1109	-750.8453	799.2527	392.1015	-781.9354	717.3648	399.0448	-772.3727	711.1695	289.5177	-774.2021	752.3775	83.8845	-797.1928	797.9291	91.3538	-703.2672	696.3095	43.6072	-734.8029	854.9996	33.1763	-833.3307	910.9068	45.139	-741.3738	811.532	1489.0156	-430.0856	794.672	1478.9849	-727.758	759.5462	1506.2937	-579.8066	743.0138	1180.887	-578.4243	900.7183	1418.41	-582.7635	934.4804	1273.9624	-572.1501	682.7484	1403.944	-499.4847
471	4.7	891.7575	1070.5561	-432.6441	685.1278	1079.4602	-535.1437	676.4087	1076.723	-580.9153	689.8278	1082.1545	-631.5543	889.9571	1067.5334	-724.9255	851.2778	739.2101	-396.9824	769.1331	738.4207	-395.4371	769.8019	628.9902	-404.1164	811.2822	502.4495	-519.4804	790.2385	513.4512	-406.2782	787.9571	349.931	-391.1968	791.5667	238.4251	-402.206	705.7665	350.0002	-399.28	710.5305	236.3082	-401.7615	725.3685	77.953	-402.2024	789.4496	92.7044	-480.4051	685.9063	37.0335	-474.6245	823.8265	37.8758	-336.0485	898.0783	39.5776	-404.3002	872.779	766.5769	-752.2019	860.0194	658.4322	-749.9136	789.8483	772.3688	-764.8766	780.4878	662.7397	-754.5328	823.5647	501.1463	-643.0594	812.748	518.125	-750.8246	799.2656	392.1043	-781.9314	717.3817	399.049	-772.3665	711.1725	289.5276	-774.1874	752.3882	83.8865	-797.1971	797.9315	91.352	-703.2653	696.3104	43.609	-734.7982	854.9967	33.1776	-833.3301	910.8968	45.1396	-741.3705	811.5128	1489.0381	-430.0912	794.6359	1478.9861	-727.7649	759.4965	1506.264	-579.8036	743.0179	1180.8685	-578.421	900.7108	1418.4709	-582.7726	934.4983	1274.0347	-572.1612	682.7372	1403.9202	-499.4481
472	4.71	891.7975	1070.5493	-432.6362	685.1652	1079.451	-535.1328	676.4458	1076.7181	-580.9031	689.882	1082.1461	-631.5446	890.0003	1067.5304	-724.9197	851.3283	739.2584	-396.9705	769.205	738.4084	-395.4354	769.8569	628.9818	-404.1099	811.2974	502.4389	-519.478	790.273	513.4408	-406.2722	787.9743	349.9331	-391.1925	791.5699	238.4223	-402.21	705.7889	350.0005	-399.2838	710.5435	236.3063	-401.7584	725.3682	77.9553	-402.199	789.4293	92.6957	-480.3958	685.9058	37.036	-474.6236	823.8204	37.8758	-336.0481	898.0718	39.5809	-404.2914	872.8067	766.5771	-752.1949	860.0388	658.4258	-749.9098	789.8797	772.3703	-764.8768	780.512	662.7383	-754.5328	823.5883	501.1373	-643.069	812.7693	518.1351	-750.8088	799.272	392.1084	-781.9254	717.3948	399.0532	-772.3598	711.1733	289.536	-774.1727	752.4026	83.8878	-797.202	797.9315	91.3516	-703.2637	696.3093	43.6105	-734.7929	854.9909	33.1796	-833.3303	910.8848	45.1396	-741.3665	811.4935	1489.0596	-430.0966	794.5987	1478.99	-727.7744	759.4501	1506.2368	-579.7997	743.0206	1180.8505	-578.4189	900.7041	1418.5323	-582.7836	934.5136	1274.1071	-572.1758	682.7253	1403.8966	-499.4112
